<svg width="19" height="18" viewBox="0 0 19 18" fill="none" xmlns="http://www.w3.org/2000/svg">
<g clip-path="url(#clip0_115_159)">
<path fill-rule="evenodd" clip-rule="evenodd" d="M19 9C19 13.9706 14.7467 18 9.5 18C4.2533 18 0 13.9706 0 9C0 4.02944 4.2533 0 9.5 0C14.7467 0 19 4.02944 19 9ZM9.84044 6.6442C8.91642 7.0083 7.06969 7.7619 4.30025 8.90499C3.85053 9.07442 3.61495 9.24016 3.59351 9.40223C3.55726 9.67612 3.91931 9.78397 4.41233 9.93084C4.47939 9.95082 4.54888 9.97152 4.62012 9.99346C5.10517 10.1428 5.75765 10.3176 6.09685 10.3245C6.40454 10.3308 6.74795 10.2106 7.12709 9.964C9.71467 8.30925 11.0504 7.47286 11.1342 7.45483C11.1934 7.44211 11.2754 7.42611 11.3309 7.47288C11.3865 7.51966 11.381 7.60824 11.3751 7.632C11.3393 7.77685 9.9181 9.02857 9.18264 9.67633C8.95336 9.87827 8.79073 10.0215 8.75748 10.0542C8.683 10.1275 8.6071 10.1968 8.53415 10.2635C8.08352 10.675 7.7456 10.9836 8.55286 11.4876C8.9408 11.7298 9.25123 11.9301 9.56093 12.1299C9.89914 12.3481 10.2365 12.5657 10.6729 12.8367C10.7841 12.9058 10.8903 12.9775 10.9938 13.0474C11.3874 13.3132 11.741 13.5521 12.1779 13.514C12.4317 13.4918 12.6939 13.2657 12.8271 12.5913C13.1418 10.9974 13.7605 7.54384 13.9034 6.12073C13.9159 5.99605 13.9002 5.83648 13.8875 5.76643C13.8749 5.69638 13.8484 5.59658 13.7523 5.5227C13.6385 5.4352 13.4628 5.41675 13.3842 5.41806C13.0269 5.42403 12.4787 5.60461 9.84044 6.6442Z" fill="black"/>
</g>
<defs>
<clipPath id="clip0_115_159">
<rect width="19" height="18" fill="white"/>
</clipPath>
</defs>
</svg>
