<svg width="19" height="18" viewBox="0 0 19 18" fill="none" xmlns="http://www.w3.org/2000/svg">
<g clip-path="url(#clip0_115_160)">
<path fill-rule="evenodd" clip-rule="evenodd" d="M1.33559 1.2653C0 2.5306 0 4.56705 0 8.64V9.36C0 13.433 0 15.4694 1.33559 16.7347C2.67119 18 4.82078 18 9.12 18H9.88C14.1792 18 16.3288 18 17.6644 16.7347C19 15.4694 19 13.433 19 9.36V8.64C19 4.56705 19 2.5306 17.6644 1.2653C16.3288 0 14.1792 0 9.88 0H9.12C4.82078 0 2.67119 0 1.33559 1.2653ZM3.2063 5.47504C3.30921 10.155 5.77921 12.9675 10.1096 12.9675H10.3551V10.29C11.9463 10.44 13.1496 11.5425 13.6325 12.9675H15.8809C15.2634 10.8375 13.6404 9.66004 12.627 9.21004C13.6404 8.65504 15.0654 7.30504 15.4058 5.47504H13.3633C12.9199 6.96004 11.6059 8.31004 10.3551 8.43754V5.47504H8.3125V10.665C7.04583 10.365 5.44671 8.91004 5.37546 5.47504H3.2063Z" fill="black"/>
</g>
<defs>
<clipPath id="clip0_115_160">
<rect width="19" height="18" fill="white"/>
</clipPath>
</defs>
</svg>
