<svg width="20" height="18" viewBox="0 0 20 18" fill="none" xmlns="http://www.w3.org/2000/svg">
<path d="M0 18L1.40583 13.3777C0.538332 12.0247 0.0824998 10.491 0.0833332 8.91825C0.0858331 4.00125 4.53166 0 9.99414 0C12.645 0.00075 15.1333 0.93 17.005 2.616C18.8758 4.302 19.9058 6.543 19.905 8.9265C19.9025 13.8443 15.4566 17.8455 9.99414 17.8455C8.33581 17.8448 6.70165 17.4705 5.25415 16.7595L0 18ZM5.49749 15.1448C6.89415 15.891 8.22748 16.338 9.99081 16.3387C14.5308 16.3387 18.2291 13.0132 18.2316 8.925C18.2333 4.8285 14.5525 1.5075 9.99748 1.506C5.45415 1.506 1.75833 4.8315 1.75666 8.919C1.75583 10.5878 2.29916 11.8372 3.21166 13.1445L2.37916 15.8805L5.49749 15.1448ZM14.9866 11.0468C14.925 10.9538 14.76 10.8982 14.5116 10.7865C14.2641 10.6747 13.0466 10.1355 12.8191 10.0612C12.5925 9.987 12.4275 9.9495 12.2616 10.173C12.0966 10.3958 11.6216 10.8983 11.4775 11.0468C11.3333 11.1953 11.1883 11.214 10.9408 11.1023C10.6933 10.9905 9.89498 10.7558 8.94915 9.996C8.21331 9.405 7.71582 8.67525 7.57165 8.45175C7.42748 8.229 7.55665 8.10825 7.67998 7.99725C7.79165 7.8975 7.92748 7.737 8.05165 7.6065C8.17748 7.4775 8.21831 7.3845 8.30165 7.23525C8.38415 7.08675 8.34331 6.95625 8.28082 6.8445C8.21832 6.7335 7.72332 5.63625 7.51748 5.19C7.31582 4.75575 7.11165 4.81425 6.95998 4.8075L6.48499 4.8C6.31999 4.8 6.05165 4.8555 5.82499 5.079C5.59832 5.3025 4.95832 5.841 4.95832 6.93825C4.95832 8.0355 5.84582 9.09525 5.96915 9.24375C6.09332 9.39225 7.71498 11.6438 10.1991 12.609C10.79 12.8385 11.2516 12.9757 11.6108 13.0785C12.2041 13.248 12.7441 13.224 13.1708 13.167C13.6466 13.1032 14.6358 12.6277 14.8425 12.1072C15.0491 11.586 15.0491 11.1398 14.9866 11.0468Z" fill="black"/>
</svg>
